<svg width="800" height="600" xmlns="http://www.w3.org/2000/svg">

 <g>
  <title>Layer 1</title>
  <rect id="svg_22" height="181" width="233" y="145" x="382" stroke="#191919" fill="#ffaad4"/>
  <path id="svg_18" d="m552,149l92,0l0,150l-92,0l0,-150z" opacity="undefined" stroke="#191919" fill="#000000"/>
  <rect id="svg_15" height="53" width="344" y="102" x="331" stroke="#0000ff" fill="#333333"/>
  <rect id="svg_13" height="111" width="311" y="293" x="265" stroke="#7f0000" fill="#999999"/>
  <rect id="svg_9" height="205" width="156" y="126" x="229" stroke="#000" fill="#7f7f7f"/>
  <rect stroke="#191919" id="svg_16" height="128" width="115" y="165" x="373" fill="#cccccc"/>
  <rect transform="rotate(54.9453 534 213.5)" stroke="null" id="svg_19" height="76.99999" width="70" y="175.00001" x="499" fill="#ffffff"/>
  <rect stroke="null" id="svg_20" height="44" width="73" y="172" x="427" fill="#ffffff"/>
  <rect transform="rotate(34.2092 439.5 225.5)" id="svg_21" height="53" width="73" y="199" x="403" fill="#ffffff"/>
  <rect stroke="#7f0000" id="svg_10" height="110" width="81" y="262" x="303" fill="#ffffff"/>
  <path id="svg_3" d="m292.54235,261.70912l0,112.99998l100.00001,0l0,-112.99998l-100.00001,0zm84.25926,103.30082l-68.51852,0l0,-93.60166l68.51852,0l0,93.60166zm-51.85185,-56.91993c5.28148,0 9.56667,-5.8539 9.56667,-13.06882c0,-7.21998 -4.28519,-13.06882 -9.56667,-13.06882c-5.28519,0 -9.56667,5.8539 -9.56667,13.06882c0,7.21492 4.28148,13.06882 9.56667,13.06882zm48.15185,11.38399l-18.21111,-24.8778l-25.61852,34.9969l-7.1,-9.69916l-10.19259,13.92388l0,26.13257l61.12223,0l0,-40.47639z" stroke="#7f0000" fill="#ffa551"/>
  <path id="svg_1" d="m492.31963,152.44911c-59.92334,0 -108.49995,27.08817 -108.49995,60.49784c0,11.41643 5.74278,22.0856 15.62306,31.19833l-15.62306,25.4663l43.50051,-8.29556c18.12707,7.57886 40.58683,12.13311 64.99943,12.13311c59.9233,0 108.50004,-27.08826 108.50004,-60.50217s-48.57674,-60.49784 -108.50004,-60.49784l0.00001,0zm-17.79458,83.73061l-18.11979,13.46049l-49.83161,-37.05389l49.82418,-37.06257l18.12722,13.49128l-31.70452,23.57129l31.70452,23.5934zm54.80131,13.44295l-18.11234,-13.47809l31.71326,-23.5669l-31.71326,-23.57584l18.11234,-13.4781l49.83168,37.02749l-49.83168,37.07144z" stroke="#000" fill="#49eded"/>
  <text style="cursor: move;" transform="rotate(-0.33492 493.345 210.169) matrix(1.03699 0 0 1.11887 26.8626 -27.6476)" stroke="#0000ff" xml:space="preserve" text-anchor="start" font-family="'Arimo'" font-size="24" stroke-width="0" id="svg_25" y="220.89376" x="415.17444" fill="#000000">Jesus</text>
 </g>
</svg>